<?xml version="1.0" encoding="UTF-8"?>
<svg width="112px" height="32px" viewBox="0 0 112 32" version="1.1" xmlns="http://www.w3.org/2000/svg" xmlns:xlink="http://www.w3.org/1999/xlink">
    <!-- Generator: Sketch 41.1 (35376) - http://www.bohemiancoding.com/sketch -->
    <title>logo</title>
    <desc>Created with Sketch.</desc>
    <defs></defs>
    <g id="Page-1" stroke="none" stroke-width="1" fill="none" fill-rule="evenodd">
        <g id="Desktop-HD-Copy" transform="translate(-83.000000, -37.000000)">
            <g id="Group-2" transform="translate(82.000000, 37.000000)">
                <g id="logo" transform="translate(1.000000, 0.000000)">
                    <path d="M11.928,25.352 C18.776,25.352 22.68,21.288 22.68,15.176 L22.68,12.744 L12.408,12.744 L12.408,16.52 L17.56,16.52 C17.464,19.144 15.896,21.352 12.056,21.352 C7.576,21.352 5.688,18.184 5.688,13.768 L5.688,13.512 C5.688,8.84 8.024,5.864 11.992,5.864 C14.744,5.864 16.504,7.08 16.952,9.768 L22.104,9.768 C21.56,4.104 17.016,1.768 11.928,1.768 C5.176,1.768 0.28,6.568 0.28,13.448 L0.28,13.704 C0.28,20.488 4.44,25.352 11.928,25.352 Z M28.636,25 L33.244,25 L33.244,8.264 L28.636,8.264 L28.636,25 Z M30.908,5.992 C32.412,5.992 33.564,4.904 33.564,3.464 C33.564,2.024 32.412,0.936 30.908,0.936 C29.436,0.936 28.284,2.024 28.284,3.464 C28.284,4.904 29.436,5.992 30.908,5.992 Z M45.568,25.352 C48.32,25.352 50.016,24.072 50.88,22.376 L50.88,25 L55.488,25 L55.488,8.264 L50.88,8.264 L50.88,18.088 C50.88,20.552 49.344,21.768 47.392,21.768 C45.408,21.768 44.48,20.68 44.48,18.408 L44.48,8.264 L39.872,8.264 L39.872,19.048 C39.872,23.432 42.304,25.352 45.568,25.352 Z M69.508,31.176 C75.012,31.176 78.308,28.648 78.34,23.688 L78.34,8.264 L73.732,8.264 L73.732,10.76 C72.772,9.064 71.14,7.88 68.42,7.88 C64.26,7.88 61.06,11.24 61.06,16.04 L61.06,16.264 C61.06,21.224 64.292,24.264 68.356,24.264 C70.82,24.264 72.804,22.792 73.732,21.16 L73.732,23.688 C73.732,26.312 72.324,27.784 69.508,27.784 C67.14,27.784 66.084,26.824 65.796,25.352 L61.188,25.352 C61.636,28.808 64.1,31.176 69.508,31.176 Z M69.732,20.776 C67.428,20.776 65.796,19.048 65.796,16.264 L65.796,16.008 C65.796,13.256 67.236,11.4 69.828,11.4 C72.356,11.4 73.86,13.128 73.86,15.976 L73.86,16.2 C73.86,19.048 72.164,20.776 69.732,20.776 Z M92.648,25.352 C97.224,25.352 100.104,23.336 100.648,19.72 L96.264,19.72 C95.976,21.128 94.92,22.056 92.776,22.056 C90.248,22.056 88.744,20.456 88.616,17.672 L100.68,17.672 L100.68,16.392 C100.68,10.408 96.84,7.88 92.52,7.88 C87.656,7.88 83.912,11.304 83.912,16.584 L83.912,16.84 C83.912,22.184 87.592,25.352 92.648,25.352 Z M88.68,14.824 C89.032,12.456 90.44,11.08 92.52,11.08 C94.728,11.08 96.008,12.296 96.168,14.824 L88.68,14.824 Z" id="Giuge.-Copy" fill="#FFFFFF"></path>
                    <path d="M108.844,25.288 C110.476,25.288 111.724,24.04 111.724,22.472 C111.724,20.936 110.476,19.688 108.844,19.688 C107.244,19.688 105.996,20.936 105.996,22.472 C105.996,24.04 107.244,25.288 108.844,25.288 Z" id="Path" fill="#85F4FF"></path>
                </g>
            </g>
        </g>
    </g>
</svg>