<?xml version="1.0" encoding="UTF-8"?>
<svg width="224px" height="62px" viewBox="0 0 224 62" version="1.1" xmlns="http://www.w3.org/2000/svg" xmlns:xlink="http://www.w3.org/1999/xlink">
    <!-- Generator: Sketch 41.1 (35376) - http://www.bohemiancoding.com/sketch -->
    <title>logo</title>
    <desc>Created with Sketch.</desc>
    <defs></defs>
    <g id="Page-1" stroke="none" stroke-width="1" fill="none" fill-rule="evenodd">
        <g id="Desktop-HD-Copy" transform="translate(-27.000000, -22.000000)">
            <g id="Group-2" transform="translate(82.000000, 37.000000)">
                <g id="logo" transform="translate(-55.000000, -16.000000)">
                    <path d="M23.856,50.704 C37.552,50.704 45.36,42.576 45.36,30.352 L45.36,25.488 L24.816,25.488 L24.816,33.04 L35.12,33.04 C34.928,38.288 31.792,42.704 24.112,42.704 C15.152,42.704 11.376,36.368 11.376,27.536 L11.376,27.024 C11.376,17.68 16.048,11.728 23.984,11.728 C29.488,11.728 33.008,14.16 33.904,19.536 L44.208,19.536 C43.12,8.208 34.032,3.536 23.856,3.536 C10.352,3.536 0.56,13.136 0.56,26.896 L0.56,27.408 C0.56,40.976 8.88,50.704 23.856,50.704 Z M57.272,50 L66.488,50 L66.488,16.528 L57.272,16.528 L57.272,50 Z M61.816,11.984 C64.824,11.984 67.128,9.808 67.128,6.928 C67.128,4.048 64.824,1.872 61.816,1.872 C58.872,1.872 56.568,4.048 56.568,6.928 C56.568,9.808 58.872,11.984 61.816,11.984 Z M91.136,50.704 C96.64,50.704 100.032,48.144 101.76,44.752 L101.76,50 L110.976,50 L110.976,16.528 L101.76,16.528 L101.76,36.176 C101.76,41.104 98.688,43.536 94.784,43.536 C90.816,43.536 88.96,41.36 88.96,36.816 L88.96,16.528 L79.744,16.528 L79.744,38.096 C79.744,46.864 84.608,50.704 91.136,50.704 Z M139.016,62.352 C150.024,62.352 156.616,57.296 156.68,47.376 L156.68,16.528 L147.464,16.528 L147.464,21.52 C145.544,18.128 142.28,15.76 136.84,15.76 C128.52,15.76 122.12,22.48 122.12,32.08 L122.12,32.528 C122.12,42.448 128.584,48.528 136.712,48.528 C141.64,48.528 145.608,45.584 147.464,42.32 L147.464,47.376 C147.464,52.624 144.648,55.568 139.016,55.568 C134.28,55.568 132.168,53.648 131.592,50.704 L122.376,50.704 C123.272,57.616 128.2,62.352 139.016,62.352 Z M139.464,41.552 C134.856,41.552 131.592,38.096 131.592,32.528 L131.592,32.016 C131.592,26.512 134.472,22.8 139.656,22.8 C144.712,22.8 147.72,26.256 147.72,31.952 L147.72,32.4 C147.72,38.096 144.328,41.552 139.464,41.552 Z M185.296,50.704 C194.448,50.704 200.208,46.672 201.296,39.44 L192.528,39.44 C191.952,42.256 189.84,44.112 185.552,44.112 C180.496,44.112 177.488,40.912 177.232,35.344 L201.36,35.344 L201.36,32.784 C201.36,20.816 193.68,15.76 185.04,15.76 C175.312,15.76 167.824,22.608 167.824,33.168 L167.824,33.68 C167.824,44.368 175.184,50.704 185.296,50.704 Z M177.36,29.648 C178.064,24.912 180.88,22.16 185.04,22.16 C189.456,22.16 192.016,24.592 192.336,29.648 L177.36,29.648 Z" id="Giuge.-Copy" fill="#FFFFFF"></path>
                    <path d="M217.688,50.576 C220.952,50.576 223.448,48.08 223.448,44.944 C223.448,41.872 220.952,39.376 217.688,39.376 C214.488,39.376 211.992,41.872 211.992,44.944 C211.992,48.08 214.488,50.576 217.688,50.576 Z" id="Path" fill="#85F4FF"></path>
                </g>
            </g>
        </g>
    </g>
</svg>